<svg width="128" height="128" xmlns="http://www.w3.org/2000/svg">
  <defs>
    <linearGradient id="bg" x1="0%" y1="0%" x2="100%" y2="100%">
      <stop offset="0%" style="stop-color:#1a1a1a"/>
      <stop offset="100%" style="stop-color:#000000"/>
    </linearGradient>
    <radialGradient id="ghost">
      <stop offset="0%" style="stop-color:#c8c8ff;stop-opacity:0.9"/>
      <stop offset="50%" style="stop-color:#9696c8;stop-opacity:0.6"/>
      <stop offset="100%" style="stop-color:#646496;stop-opacity:0.3"/>
    </radialGradient>
    <filter id="glow">
      <feGaussianBlur stdDeviation="3" result="coloredBlur"/>
      <feMerge>
        <feMergeNode in="coloredBlur"/>
        <feMergeNode in="SourceGraphic"/>
      </feMerge>
    </filter>
  </defs>
  <rect width="128" height="128" fill="url(#bg)"/>
  <rect x="4" y="4" width="120" height="120" fill="none" stroke="#ff0000" stroke-width="3" rx="8"/>
  <ellipse cx="64" cy="64" rx="40" ry="48" fill="url(#ghost)"/>
  <circle cx="48" cy="56" r="6" fill="#ff0000" filter="url(#glow)"/>
  <circle cx="80" cy="56" r="6" fill="#ff0000" filter="url(#glow)"/>
  <path d="M 34 90 Q 34 95 38 95 Q 42 95 42 90 Q 42 95 46 95 Q 50 95 50 90 Q 50 95 54 95 Q 58 95 58 90 Q 58 95 62 95 Q 66 95 66 90 Q 66 95 70 95 Q 74 95 74 90 Q 74 95 78 95 Q 82 95 82 90 Q 82 95 86 95 Q 90 95 90 90" fill="url(#ghost)" opacity="0.8"/>
</svg>
